<svg xmlns="http://www.w3.org/2000/svg" width="25px" height="25px" viewBox="0 0 20 20">
<symbol id="btnPlay" 	viewBox="0 0 20 20"><path   d="M16.6582 9.28638C18.098 10.1862 18.8178 10.6361 19.0647 11.2122C19.2803 11.7152 19.2803 12.2847 19.0647 12.7878C18.8178 13.3638 18.098 13.8137 16.6582 14.7136L9.896 18.94C8.29805 19.9387 7.49907 20.4381 6.83973 20.385C6.26501 20.3388 5.73818 20.0469 5.3944 19.584C5 19.053 5 18.1108 5 16.2264V7.77357C5 5.88919 5 4.94701 5.3944 4.41598C5.73818 3.9531 6.26501 3.66111 6.83973 3.6149C7.49907 3.5619 8.29805 4.06126 9.896 5.05998L16.6582 9.28638Z"></path>
</symbol>

<symbol id="btnStop" viewBox="0 0 20 20"><path fill="hsl(0deg 0% 65%)" d="M6 6H18V18H6V6ZM7.5 7.5V16.5H16.5V7.5H7.5Z"></path></symbol>

<symbol id="btnPause"  viewBox="0 0 20 20"><path d="M10.5 6H6V18H10.5V6ZM7.5 16.5V7.5H9V16.5H7.5ZM18 6H13.5V18H18V6ZM15 16.5V7.5H16.5V16.5H15Z" /></path></symbol>

<symbol id="icon-delete"  viewBox="0 0 25 25"><path d="M6 7V18C6 19.1046 6.89543 20 8 20H16C17.1046 20 18 19.1046 18 18V7M6 7H5M6 7H8M18 7H19M18 7H16M10 11V16M14 11V16M8 7V5C8 3.89543 8.89543 3 10 3H14C15.1046 3 16 3.89543 16 5V7M8 7H16" /></path></symbol>

<symbol id="icon-heart" viewBox="0 0 30 30" fill="none" > <path d="M22.45,6a5.47,5.47,0,0,1,3.91,1.64,5.7,5.7,0,0,1,0,8L16,26.13,5.64,15.64a5.7,5.7,0,0,1,0-8,5.48,5.48,0,0,1,7.82,0L16,10.24l2.53-2.58A5.44,5.44,0,0,1,22.45,6m0-2a7.47,7.47,0,0,0-5.34,2.24L16,7.36,14.89,6.24a7.49,7.49,0,0,0-10.68,0,7.72,7.72,0,0,0,0,10.82L16,29,27.79,17.06a7.72,7.72,0,0,0,0-10.82A7.49,7.49,0,0,0,22.45,4Z" fill="hsl(0deg 0% 18%)"></path> </symbol>
</svg>



